<?xml version="1.0" encoding="UTF-8" ?>
<svg version="1.1" width="48" height="48" xmlns="http://www.w3.org/2000/svg" shape-rendering="crispEdges">
<rect x="18" y="1" width="9" height="1" fill="#060608" />
<rect x="17" y="2" width="1" height="1" fill="#060608" />
<rect x="18" y="2" width="4" height="3" fill="#8A150F" />
<rect x="22" y="2" width="2" height="1" fill="#6E100C" />
<rect x="24" y="2" width="3" height="2" fill="#8A150F" />
<rect x="27" y="2" width="1" height="1" fill="#060608" />
<rect x="16" y="3" width="1" height="1" fill="#060608" />
<rect x="17" y="3" width="1" height="16" fill="#8A150F" />
<rect x="22" y="3" width="2" height="1" fill="#8A150F" />
<rect x="27" y="3" width="1" height="5" fill="#8A150F" />
<rect x="28" y="3" width="2" height="1" fill="#060608" />
<rect x="15" y="4" width="1" height="1" fill="#060608" />
<rect x="16" y="4" width="1" height="5" fill="#8A150F" />
<rect x="22" y="4" width="1" height="1" fill="#8A150F" />
<rect x="23" y="4" width="1" height="1" fill="#6E100C" />
<rect x="24" y="4" width="1" height="6" fill="#8A150F" />
<rect x="25" y="4" width="1" height="3" fill="#6E100C" />
<rect x="26" y="4" width="1" height="5" fill="#8A150F" />
<rect x="28" y="4" width="2" height="4" fill="#8A150F" />
<rect x="30" y="4" width="2" height="1" fill="#060608" />
<rect x="12" y="5" width="3" height="1" fill="#060608" />
<rect x="15" y="5" width="1" height="4" fill="#6E100C" />
<rect x="18" y="5" width="2" height="2" fill="#8A150F" />
<rect x="20" y="5" width="3" height="1" fill="#6E100C" />
<rect x="23" y="5" width="1" height="5" fill="#8A150F" />
<rect x="30" y="5" width="2" height="1" fill="#8A150F" />
<rect x="32" y="5" width="3" height="1" fill="#060608" />
<rect x="11" y="6" width="2" height="1" fill="#060608" />
<rect x="13" y="6" width="2" height="4" fill="#8A150F" />
<rect x="20" y="6" width="3" height="1" fill="#8A150F" />
<rect x="30" y="6" width="1" height="1" fill="#8A150F" />
<rect x="31" y="6" width="2" height="1" fill="#DF3E23" />
<rect x="33" y="6" width="2" height="2" fill="#FA6A0A" />
<rect x="35" y="6" width="1" height="1" fill="#060608" />
<rect x="10" y="7" width="2" height="1" fill="#060608" />
<rect x="12" y="7" width="1" height="3" fill="#8A150F" />
<rect x="18" y="7" width="1" height="1" fill="#6E100C" />
<rect x="19" y="7" width="3" height="3" fill="#8A150F" />
<rect x="22" y="7" width="1" height="1" fill="#6E100C" />
<rect x="25" y="7" width="1" height="2" fill="#8A150F" />
<rect x="30" y="7" width="2" height="1" fill="#DF3E23" />
<rect x="32" y="7" width="1" height="8" fill="#FA6A0A" />
<rect x="35" y="7" width="1" height="6" fill="#FA6A0A" />
<rect x="36" y="7" width="1" height="1" fill="#060608" />
<rect x="9" y="8" width="1" height="2" fill="#060608" />
<rect x="10" y="8" width="1" height="1" fill="#6E100C" />
<rect x="11" y="8" width="1" height="2" fill="#8A150F" />
<rect x="18" y="8" width="1" height="1" fill="#8A150F" />
<rect x="22" y="8" width="1" height="2" fill="#8A150F" />
<rect x="27" y="8" width="1" height="1" fill="#6E100C" />
<rect x="28" y="8" width="1" height="1" fill="#8A150F" />
<rect x="29" y="8" width="2" height="1" fill="#DF3E23" />
<rect x="31" y="8" width="1" height="2" fill="#FA6A0A" />
<rect x="33" y="8" width="1" height="6" fill="#FA6A0A" />
<rect x="34" y="8" width="1" height="1" fill="#6E100C" />
<rect x="36" y="8" width="1" height="1" fill="#DF3E23" />
<rect x="37" y="8" width="1" height="1" fill="#060608" />
<rect x="10" y="9" width="1" height="2" fill="#8A150F" />
<rect x="15" y="9" width="1" height="13" fill="#8A150F" />
<rect x="16" y="9" width="1" height="1" fill="#6E100C" />
<rect x="18" y="9" width="1" height="1" fill="#6E100C" />
<rect x="25" y="9" width="2" height="2" fill="#6E100C" />
<rect x="27" y="9" width="1" height="2" fill="#DF3E23" />
<rect x="28" y="9" width="1" height="1" fill="#6E100C" />
<rect x="29" y="9" width="1" height="1" fill="#DF3E23" />
<rect x="30" y="9" width="1" height="1" fill="#FA6A0A" />
<rect x="34" y="9" width="1" height="3" fill="#FA6A0A" />
<rect x="36" y="9" width="2" height="3" fill="#FA6A0A" />
<rect x="38" y="9" width="1" height="1" fill="#060608" />
<rect x="7" y="10" width="2" height="1" fill="#060608" />
<rect x="9" y="10" width="1" height="1" fill="#8A150F" />
<rect x="11" y="10" width="3" height="1" fill="#6E100C" />
<rect x="14" y="10" width="1" height="1" fill="#8A150F" />
<rect x="16" y="10" width="1" height="4" fill="#8A150F" />
<rect x="18" y="10" width="3" height="2" fill="#8A150F" />
<rect x="21" y="10" width="1" height="1" fill="#6E100C" />
<rect x="22" y="10" width="1" height="1" fill="#F9A31B" />
<rect x="23" y="10" width="2" height="1" fill="#6E100C" />
<rect x="28" y="10" width="2" height="2" fill="#FA6A0A" />
<rect x="30" y="10" width="2" height="1" fill="#6E100C" />
<rect x="38" y="10" width="1" height="1" fill="#FA6A0A" />
<rect x="39" y="10" width="1" height="3" fill="#060608" />
<rect x="7" y="11" width="1" height="2" fill="#060608" />
<rect x="8" y="11" width="1" height="7" fill="#8A150F" />
<rect x="9" y="11" width="2" height="1" fill="#6E100C" />
<rect x="11" y="11" width="3" height="4" fill="#8A150F" />
<rect x="14" y="11" width="1" height="1" fill="#6E100C" />
<rect x="21" y="11" width="3" height="2" fill="#8A150F" />
<rect x="24" y="11" width="1" height="1" fill="#6E100C" />
<rect x="25" y="11" width="1" height="2" fill="#DF3E23" />
<rect x="26" y="11" width="1" height="1" fill="#6E100C" />
<rect x="27" y="11" width="1" height="2" fill="#FA6A0A" />
<rect x="30" y="11" width="2" height="3" fill="#FA6A0A" />
<rect x="38" y="11" width="1" height="1" fill="#FFD541" />
<rect x="6" y="12" width="1" height="1" fill="#060608" />
<rect x="9" y="12" width="2" height="3" fill="#8A150F" />
<rect x="14" y="12" width="1" height="11" fill="#8A150F" />
<rect x="18" y="12" width="2" height="1" fill="#8A150F" />
<rect x="20" y="12" width="1" height="1" fill="#6E100C" />
<rect x="24" y="12" width="1" height="2" fill="#DF3E23" />
<rect x="26" y="12" width="1" height="6" fill="#FA6A0A" />
<rect x="28" y="12" width="1" height="1" fill="#6E100C" />
<rect x="29" y="12" width="1" height="7" fill="#FA6A0A" />
<rect x="34" y="12" width="1" height="1" fill="#6E100C" />
<rect x="36" y="12" width="3" height="2" fill="#F9A31B" />
<rect x="5" y="13" width="1" height="2" fill="#060608" />
<rect x="6" y="13" width="2" height="8" fill="#8A150F" />
<rect x="18" y="13" width="1" height="2" fill="#6E100C" />
<rect x="19" y="13" width="4" height="1" fill="#8A150F" />
<rect x="23" y="13" width="1" height="2" fill="#DF3E23" />
<rect x="25" y="13" width="1" height="4" fill="#FA6A0A" />
<rect x="27" y="13" width="1" height="1" fill="#6E100C" />
<rect x="28" y="13" width="1" height="1" fill="#FA6A0A" />
<rect x="34" y="13" width="2" height="2" fill="#F9A31B" />
<rect x="39" y="13" width="1" height="4" fill="#F9A31B" />
<rect x="40" y="13" width="1" height="1" fill="#060608" />
<rect x="16" y="14" width="1" height="3" fill="#6E100C" />
<rect x="19" y="14" width="3" height="1" fill="#8A150F" />
<rect x="22" y="14" width="1" height="2" fill="#DF3E23" />
<rect x="24" y="14" width="1" height="3" fill="#FA6A0A" />
<rect x="27" y="14" width="1" height="3" fill="#FA6A0A" />
<rect x="28" y="14" width="1" height="1" fill="#6E100C" />
<rect x="30" y="14" width="2" height="2" fill="#6E100C" />
<rect x="33" y="14" width="1" height="1" fill="#6E100C" />
<rect x="36" y="14" width="1" height="1" fill="#6E100C" />
<rect x="37" y="14" width="2" height="2" fill="#F9A31B" />
<rect x="40" y="14" width="1" height="1" fill="#6E100C" />
<rect x="41" y="14" width="1" height="1" fill="#060608" />
<rect x="4" y="15" width="1" height="1" fill="#060608" />
<rect x="5" y="15" width="1" height="10" fill="#8A150F" />
<rect x="9" y="15" width="1" height="23" fill="#8A150F" />
<rect x="10" y="15" width="2" height="1" fill="#6E100C" />
<rect x="12" y="15" width="2" height="1" fill="#8A150F" />
<rect x="18" y="15" width="2" height="2" fill="#8A150F" />
<rect x="20" y="15" width="1" height="2" fill="#6E100C" />
<rect x="21" y="15" width="1" height="1" fill="#DF3E23" />
<rect x="23" y="15" width="1" height="3" fill="#FA6A0A" />
<rect x="28" y="15" width="1" height="1" fill="#FA6A0A" />
<rect x="32" y="15" width="3" height="1" fill="#F9A31B" />
<rect x="35" y="15" width="1" height="1" fill="#6E100C" />
<rect x="36" y="15" width="1" height="2" fill="#F9A31B" />
<rect x="40" y="15" width="2" height="2" fill="#F9A31B" />
<rect x="42" y="15" width="1" height="3" fill="#060608" />
<rect x="3" y="16" width="1" height="2" fill="#060608" />
<rect x="4" y="16" width="1" height="7" fill="#8A150F" />
<rect x="10" y="16" width="1" height="4" fill="#8A150F" />
<rect x="11" y="16" width="1" height="2" fill="#6E100C" />
<rect x="12" y="16" width="1" height="1" fill="#8A150F" />
<rect x="13" y="16" width="1" height="1" fill="#6E100C" />
<rect x="21" y="16" width="1" height="2" fill="#6E100C" />
<rect x="22" y="16" width="1" height="2" fill="#FA6A0A" />
<rect x="28" y="16" width="1" height="1" fill="#F9A31B" />
<rect x="30" y="16" width="1" height="1" fill="#FFD541" />
<rect x="31" y="16" width="1" height="1" fill="#6E100C" />
<rect x="32" y="16" width="1" height="2" fill="#F9A31B" />
<rect x="33" y="16" width="2" height="1" fill="#6E100C" />
<rect x="35" y="16" width="1" height="2" fill="#F9A31B" />
<rect x="37" y="16" width="1" height="1" fill="#F9A31B" />
<rect x="38" y="16" width="1" height="1" fill="#6E100C" />
<rect x="12" y="17" width="1" height="1" fill="#6E100C" />
<rect x="13" y="17" width="1" height="3" fill="#8A150F" />
<rect x="16" y="17" width="1" height="3" fill="#8A150F" />
<rect x="18" y="17" width="1" height="1" fill="#8A150F" />
<rect x="19" y="17" width="2" height="1" fill="#DF3E23" />
<rect x="24" y="17" width="1" height="1" fill="#F9A31B" />
<rect x="25" y="17" width="1" height="1" fill="#6E100C" />
<rect x="27" y="17" width="2" height="1" fill="#6E100C" />
<rect x="30" y="17" width="2" height="2" fill="#F9A31B" />
<rect x="33" y="17" width="1" height="3" fill="#F9A31B" />
<rect x="34" y="17" width="1" height="1" fill="#6E100C" />
<rect x="36" y="17" width="2" height="1" fill="#6E100C" />
<rect x="38" y="17" width="1" height="1" fill="#F9A31B" />
<rect x="39" y="17" width="2" height="1" fill="#FFD541" />
<rect x="41" y="17" width="1" height="1" fill="#FA6A0A" />
<rect x="2" y="18" width="1" height="1" fill="#060608" />
<rect x="3" y="18" width="1" height="10" fill="#8A150F" />
<rect x="8" y="18" width="1" height="1" fill="#6E100C" />
<rect x="11" y="18" width="2" height="3" fill="#8A150F" />
<rect x="18" y="18" width="2" height="1" fill="#DF3E23" />
<rect x="20" y="18" width="2" height="2" fill="#FA6A0A" />
<rect x="22" y="18" width="3" height="1" fill="#6E100C" />
<rect x="25" y="18" width="1" height="2" fill="#FA6A0A" />
<rect x="26" y="18" width="1" height="1" fill="#6E100C" />
<rect x="27" y="18" width="2" height="1" fill="#FA6A0A" />
<rect x="32" y="18" width="1" height="4" fill="#6E100C" />
<rect x="34" y="18" width="1" height="1" fill="#F9A31B" />
<rect x="35" y="18" width="2" height="1" fill="#6E100C" />
<rect x="37" y="18" width="1" height="1" fill="#F9A31B" />
<rect x="38" y="18" width="2" height="4" fill="#FFD541" />
<rect x="40" y="18" width="1" height="1" fill="#FA6A0A" />
<rect x="41" y="18" width="1" height="1" fill="#F9A31B" />
<rect x="42" y="18" width="1" height="1" fill="#6E100C" />
<rect x="1" y="19" width="1" height="4" fill="#060608" />
<rect x="2" y="19" width="1" height="2" fill="#8A150F" />
<rect x="8" y="19" width="1" height="1" fill="#8A150F" />
<rect x="17" y="19" width="2" height="2" fill="#DF3E23" />
<rect x="19" y="19" width="1" height="3" fill="#FA6A0A" />
<rect x="22" y="19" width="3" height="1" fill="#FA6A0A" />
<rect x="26" y="19" width="2" height="1" fill="#FA6A0A" />
<rect x="28" y="19" width="3" height="1" fill="#F9A31B" />
<rect x="31" y="19" width="1" height="1" fill="#6E100C" />
<rect x="34" y="19" width="2" height="1" fill="#6E100C" />
<rect x="36" y="19" width="1" height="1" fill="#F9A31B" />
<rect x="37" y="19" width="1" height="2" fill="#FFD541" />
<rect x="40" y="19" width="2" height="1" fill="#FFD541" />
<rect x="42" y="19" width="1" height="1" fill="#060608" />
<rect x="8" y="20" width="1" height="1" fill="#6E100C" />
<rect x="10" y="20" width="1" height="1" fill="#6E100C" />
<rect x="13" y="20" width="1" height="2" fill="#6E100C" />
<rect x="16" y="20" width="1" height="1" fill="#6E100C" />
<rect x="20" y="20" width="1" height="1" fill="#6E100C" />
<rect x="21" y="20" width="1" height="5" fill="#FA6A0A" />
<rect x="22" y="20" width="2" height="1" fill="#6E100C" />
<rect x="24" y="20" width="1" height="2" fill="#FA6A0A" />
<rect x="25" y="20" width="1" height="1" fill="#6E100C" />
<rect x="26" y="20" width="1" height="1" fill="#FA6A0A" />
<rect x="27" y="20" width="2" height="1" fill="#6E100C" />
<rect x="29" y="20" width="1" height="1" fill="#FFD541" />
<rect x="30" y="20" width="2" height="2" fill="#F9A31B" />
<rect x="33" y="20" width="1" height="1" fill="#6E100C" />
<rect x="34" y="20" width="1" height="1" fill="#F9A31B" />
<rect x="35" y="20" width="1" height="5" fill="#6E100C" />
<rect x="36" y="20" width="1" height="1" fill="#FFD541" />
<rect x="40" y="20" width="1" height="1" fill="#6E100C" />
<rect x="41" y="20" width="2" height="2" fill="#FFD541" />
<rect x="43" y="20" width="1" height="3" fill="#060608" />
<rect x="2" y="21" width="1" height="1" fill="#6E100C" />
<rect x="6" y="21" width="2" height="1" fill="#6E100C" />
<rect x="8" y="21" width="1" height="5" fill="#8A150F" />
<rect x="10" y="21" width="2" height="2" fill="#8A150F" />
<rect x="12" y="21" width="1" height="1" fill="#6E100C" />
<rect x="16" y="21" width="2" height="1" fill="#DF3E23" />
<rect x="18" y="21" width="1" height="1" fill="#6E100C" />
<rect x="20" y="21" width="1" height="1" fill="#F9A31B" />
<rect x="22" y="21" width="1" height="6" fill="#FA6A0A" />
<rect x="23" y="21" width="1" height="1" fill="#6E100C" />
<rect x="25" y="21" width="1" height="3" fill="#FA6A0A" />
<rect x="26" y="21" width="2" height="1" fill="#6E100C" />
<rect x="28" y="21" width="1" height="2" fill="#F9A31B" />
<rect x="29" y="21" width="1" height="1" fill="#6E100C" />
<rect x="33" y="21" width="1" height="4" fill="#F9A31B" />
<rect x="34" y="21" width="1" height="1" fill="#FA6A0A" />
<rect x="36" y="21" width="2" height="1" fill="#6E100C" />
<rect x="40" y="21" width="1" height="2" fill="#FFD541" />
<rect x="2" y="22" width="1" height="1" fill="#8A150F" />
<rect x="6" y="22" width="1" height="1" fill="#6E100C" />
<rect x="7" y="22" width="1" height="6" fill="#8A150F" />
<rect x="12" y="22" width="2" height="3" fill="#8A150F" />
<rect x="15" y="22" width="2" height="2" fill="#DF3E23" />
<rect x="17" y="22" width="2" height="1" fill="#FA6A0A" />
<rect x="19" y="22" width="1" height="1" fill="#6E100C" />
<rect x="20" y="22" width="1" height="3" fill="#FA6A0A" />
<rect x="23" y="22" width="1" height="4" fill="#FA6A0A" />
<rect x="24" y="22" width="1" height="1" fill="#6E100C" />
<rect x="26" y="22" width="2" height="1" fill="#F9A31B" />
<rect x="29" y="22" width="1" height="3" fill="#F9A31B" />
<rect x="30" y="22" width="1" height="1" fill="#FA6A0A" />
<rect x="31" y="22" width="2" height="1" fill="#F9A31B" />
<rect x="34" y="22" width="1" height="2" fill="#FFD541" />
<rect x="36" y="22" width="1" height="1" fill="#FFD541" />
<rect x="37" y="22" width="2" height="2" fill="#6E100C" />
<rect x="39" y="22" width="1" height="5" fill="#FFD541" />
<rect x="41" y="22" width="1" height="3" fill="#FFD541" />
<rect x="42" y="22" width="1" height="1" fill="#FA6A0A" />
<rect x="2" y="23" width="1" height="5" fill="#060608" />
<rect x="4" y="23" width="1" height="4" fill="#6E100C" />
<rect x="6" y="23" width="1" height="5" fill="#8A150F" />
<rect x="10" y="23" width="1" height="8" fill="#8A150F" />
<rect x="11" y="23" width="1" height="2" fill="#6E100C" />
<rect x="14" y="23" width="1" height="4" fill="#DF3E23" />
<rect x="17" y="23" width="1" height="7" fill="#FA6A0A" />
<rect x="18" y="23" width="1" height="1" fill="#F9A31B" />
<rect x="19" y="23" width="1" height="3" fill="#FA6A0A" />
<rect x="24" y="23" width="1" height="1" fill="#F9A31B" />
<rect x="26" y="23" width="1" height="1" fill="#6E100C" />
<rect x="27" y="23" width="1" height="1" fill="#F9A31B" />
<rect x="28" y="23" width="1" height="1" fill="#6E100C" />
<rect x="30" y="23" width="2" height="1" fill="#F9A31B" />
<rect x="32" y="23" width="1" height="1" fill="#6E100C" />
<rect x="36" y="23" width="1" height="1" fill="#6E100C" />
<rect x="40" y="23" width="1" height="1" fill="#FA6A0A" />
<rect x="42" y="23" width="2" height="3" fill="#FFD541" />
<rect x="44" y="23" width="1" height="6" fill="#060608" />
<rect x="15" y="24" width="1" height="1" fill="#DF3E23" />
<rect x="16" y="24" width="1" height="5" fill="#FA6A0A" />
<rect x="18" y="24" width="1" height="5" fill="#FA6A0A" />
<rect x="24" y="24" width="1" height="2" fill="#FA6A0A" />
<rect x="25" y="24" width="2" height="2" fill="#F9A31B" />
<rect x="27" y="24" width="1" height="1" fill="#6E100C" />
<rect x="28" y="24" width="1" height="1" fill="#FA6A0A" />
<rect x="30" y="24" width="1" height="2" fill="#F9A31B" />
<rect x="31" y="24" width="1" height="1" fill="#FFD541" />
<rect x="32" y="24" width="1" height="1" fill="#F9A31B" />
<rect x="34" y="24" width="1" height="1" fill="#6E100C" />
<rect x="36" y="24" width="1" height="1" fill="#FFD541" />
<rect x="37" y="24" width="1" height="1" fill="#F9A31B" />
<rect x="38" y="24" width="1" height="6" fill="#FFD541" />
<rect x="40" y="24" width="1" height="4" fill="#FFD541" />
<rect x="5" y="25" width="1" height="1" fill="#6E100C" />
<rect x="11" y="25" width="2" height="1" fill="#8A150F" />
<rect x="13" y="25" width="1" height="2" fill="#DF3E23" />
<rect x="15" y="25" width="1" height="6" fill="#FA6A0A" />
<rect x="20" y="25" width="2" height="1" fill="#6E100C" />
<rect x="27" y="25" width="1" height="1" fill="#FA6A0A" />
<rect x="28" y="25" width="1" height="1" fill="#F9A31B" />
<rect x="29" y="25" width="1" height="1" fill="#6E100C" />
<rect x="31" y="25" width="1" height="1" fill="#6E100C" />
<rect x="32" y="25" width="1" height="10" fill="#FFD541" />
<rect x="33" y="25" width="1" height="2" fill="#6E100C" />
<rect x="34" y="25" width="2" height="4" fill="#FFD541" />
<rect x="36" y="25" width="1" height="1" fill="#6E100C" />
<rect x="37" y="25" width="1" height="1" fill="#FFD541" />
<rect x="41" y="25" width="1" height="1" fill="#FA6A0A" />
<rect x="5" y="26" width="1" height="1" fill="#8A150F" />
<rect x="8" y="26" width="1" height="2" fill="#6E100C" />
<rect x="11" y="26" width="1" height="1" fill="#6E100C" />
<rect x="12" y="26" width="1" height="1" fill="#8A150F" />
<rect x="19" y="26" width="1" height="1" fill="#6E100C" />
<rect x="20" y="26" width="1" height="1" fill="#FA6A0A" />
<rect x="21" y="26" width="1" height="2" fill="#6E100C" />
<rect x="23" y="26" width="2" height="2" fill="#F9A31B" />
<rect x="25" y="26" width="1" height="1" fill="#6E100C" />
<rect x="26" y="26" width="2" height="2" fill="#F9A31B" />
<rect x="28" y="26" width="1" height="1" fill="#6E100C" />
<rect x="29" y="26" width="1" height="1" fill="#FA6A0A" />
<rect x="30" y="26" width="2" height="1" fill="#FFD541" />
<rect x="36" y="26" width="1" height="1" fill="#FFD541" />
<rect x="37" y="26" width="1" height="1" fill="#F9A31B" />
<rect x="41" y="26" width="2" height="1" fill="#FFD541" />
<rect x="43" y="26" width="1" height="3" fill="#F9A31B" />
<rect x="4" y="27" width="1" height="5" fill="#8A150F" />
<rect x="5" y="27" width="1" height="1" fill="#6E100C" />
<rect x="11" y="27" width="1" height="3" fill="#8A150F" />
<rect x="12" y="27" width="1" height="4" fill="#DF3E23" />
<rect x="13" y="27" width="1" height="1" fill="#F9A31B" />
<rect x="14" y="27" width="1" height="2" fill="#FA6A0A" />
<rect x="19" y="27" width="1" height="1" fill="#FA6A0A" />
<rect x="20" y="27" width="1" height="1" fill="#6E100C" />
<rect x="22" y="27" width="1" height="1" fill="#F9A31B" />
<rect x="25" y="27" width="1" height="1" fill="#F9A31B" />
<rect x="28" y="27" width="1" height="1" fill="#FA6A0A" />
<rect x="29" y="27" width="1" height="2" fill="#F9A31B" />
<rect x="30" y="27" width="1" height="1" fill="#6E100C" />
<rect x="31" y="27" width="1" height="2" fill="#FFD541" />
<rect x="33" y="27" width="1" height="1" fill="#FFD541" />
<rect x="36" y="27" width="1" height="1" fill="#6E100C" />
<rect x="37" y="27" width="1" height="2" fill="#FFD541" />
<rect x="39" y="27" width="1" height="1" fill="#6E100C" />
<rect x="41" y="27" width="2" height="6" fill="#F9A31B" />
<rect x="3" y="28" width="1" height="4" fill="#060608" />
<rect x="5" y="28" width="1" height="1" fill="#8A150F" />
<rect x="6" y="28" width="2" height="1" fill="#6E100C" />
<rect x="8" y="28" width="1" height="3" fill="#8A150F" />
<rect x="13" y="28" width="1" height="1" fill="#6E100C" />
<rect x="19" y="28" width="1" height="1" fill="#6E100C" />
<rect x="20" y="28" width="1" height="2" fill="#FA6A0A" />
<rect x="21" y="28" width="1" height="1" fill="#F9A31B" />
<rect x="22" y="28" width="1" height="1" fill="#6E100C" />
<rect x="23" y="28" width="1" height="1" fill="#FFD541" />
<rect x="24" y="28" width="1" height="1" fill="#F9A31B" />
<rect x="25" y="28" width="2" height="1" fill="#6E100C" />
<rect x="27" y="28" width="2" height="1" fill="#F9A31B" />
<rect x="30" y="28" width="1" height="1" fill="#F9A31B" />
<rect x="33" y="28" width="1" height="1" fill="#F9A31B" />
<rect x="36" y="28" width="1" height="3" fill="#FFD541" />
<rect x="39" y="28" width="1" height="1" fill="#FFD541" />
<rect x="40" y="28" width="1" height="5" fill="#F9A31B" />
<rect x="5" y="29" width="1" height="1" fill="#6E100C" />
<rect x="6" y="29" width="2" height="1" fill="#8A150F" />
<rect x="13" y="29" width="1" height="1" fill="#DF3E23" />
<rect x="14" y="29" width="1" height="1" fill="#F9A31B" />
<rect x="16" y="29" width="1" height="1" fill="#6E100C" />
<rect x="18" y="29" width="1" height="1" fill="#6E100C" />
<rect x="19" y="29" width="1" height="2" fill="#FA6A0A" />
<rect x="21" y="29" width="1" height="1" fill="#6E100C" />
<rect x="22" y="29" width="2" height="2" fill="#F9A31B" />
<rect x="24" y="29" width="2" height="1" fill="#6E100C" />
<rect x="26" y="29" width="1" height="1" fill="#F9A31B" />
<rect x="27" y="29" width="3" height="1" fill="#6E100C" />
<rect x="30" y="29" width="1" height="10" fill="#FFD541" />
<rect x="31" y="29" width="1" height="1" fill="#6E100C" />
<rect x="33" y="29" width="1" height="5" fill="#FFD541" />
<rect x="34" y="29" width="1" height="1" fill="#6E100C" />
<rect x="35" y="29" width="1" height="3" fill="#FFD541" />
<rect x="37" y="29" width="1" height="1" fill="#6E100C" />
<rect x="39" y="29" width="1" height="2" fill="#F9A31B" />
<rect x="43" y="29" width="1" height="4" fill="#060608" />
<rect x="5" y="30" width="1" height="1" fill="#8A150F" />
<rect x="6" y="30" width="2" height="1" fill="#6E100C" />
<rect x="11" y="30" width="1" height="1" fill="#6E100C" />
<rect x="13" y="30" width="1" height="7" fill="#FA6A0A" />
<rect x="14" y="30" width="1" height="1" fill="#6E100C" />
<rect x="16" y="30" width="1" height="3" fill="#FA6A0A" />
<rect x="17" y="30" width="1" height="1" fill="#6E100C" />
<rect x="18" y="30" width="1" height="1" fill="#F9A31B" />
<rect x="20" y="30" width="1" height="2" fill="#6E100C" />
<rect x="21" y="30" width="1" height="1" fill="#FA6A0A" />
<rect x="24" y="30" width="1" height="1" fill="#F9A31B" />
<rect x="25" y="30" width="2" height="1" fill="#6E100C" />
<rect x="27" y="30" width="1" height="1" fill="#F9A31B" />
<rect x="28" y="30" width="1" height="2" fill="#6E100C" />
<rect x="29" y="30" width="1" height="7" fill="#FFD541" />
<rect x="31" y="30" width="1" height="1" fill="#FFD541" />
<rect x="34" y="30" width="1" height="3" fill="#FFD541" />
<rect x="37" y="30" width="2" height="1" fill="#F9A31B" />
<rect x="5" y="31" width="1" height="1" fill="#6E100C" />
<rect x="6" y="31" width="2" height="1" fill="#8A150F" />
<rect x="8" y="31" width="1" height="1" fill="#6E100C" />
<rect x="10" y="31" width="1" height="1" fill="#6E100C" />
<rect x="11" y="31" width="1" height="3" fill="#DF3E23" />
<rect x="12" y="31" width="1" height="1" fill="#6E100C" />
<rect x="14" y="31" width="1" height="3" fill="#FA6A0A" />
<rect x="15" y="31" width="1" height="1" fill="#6E100C" />
<rect x="17" y="31" width="1" height="1" fill="#FA6A0A" />
<rect x="18" y="31" width="2" height="4" fill="#6E100C" />
<rect x="21" y="31" width="4" height="1" fill="#6E100C" />
<rect x="25" y="31" width="2" height="1" fill="#F9A31B" />
<rect x="27" y="31" width="1" height="3" fill="#6E100C" />
<rect x="31" y="31" width="1" height="1" fill="#FA6A0A" />
<rect x="36" y="31" width="1" height="1" fill="#F9A31B" />
<rect x="37" y="31" width="3" height="11" fill="#8E5252" />
<rect x="4" y="32" width="1" height="3" fill="#060608" />
<rect x="5" y="32" width="1" height="3" fill="#8A150F" />
<rect x="6" y="32" width="1" height="1" fill="#6E100C" />
<rect x="7" y="32" width="2" height="1" fill="#8A150F" />
<rect x="10" y="32" width="1" height="1" fill="#8A150F" />
<rect x="12" y="32" width="1" height="10" fill="#FA6A0A" />
<rect x="15" y="32" width="1" height="2" fill="#FA6A0A" />
<rect x="17" y="32" width="1" height="2" fill="#6E100C" />
<rect x="20" y="32" width="1" height="1" fill="#FFD541" />
<rect x="21" y="32" width="1" height="2" fill="#6E100C" />
<rect x="22" y="32" width="2" height="1" fill="#F9A31B" />
<rect x="24" y="32" width="3" height="1" fill="#6E100C" />
<rect x="28" y="32" width="1" height="1" fill="#FFD541" />
<rect x="31" y="32" width="1" height="1" fill="#FFD541" />
<rect x="35" y="32" width="1" height="1" fill="#F9A31B" />
<rect x="36" y="32" width="1" height="9" fill="#8E5252" />
<rect x="6" y="33" width="1" height="1" fill="#8A150F" />
<rect x="7" y="33" width="1" height="1" fill="#6E100C" />
<rect x="8" y="33" width="1" height="1" fill="#8A150F" />
<rect x="10" y="33" width="1" height="1" fill="#F9A31B" />
<rect x="16" y="33" width="1" height="2" fill="#6E100C" />
<rect x="20" y="33" width="1" height="1" fill="#6E100C" />
<rect x="22" y="33" width="3" height="1" fill="#6E100C" />
<rect x="25" y="33" width="1" height="1" fill="#F9A31B" />
<rect x="26" y="33" width="1" height="1" fill="#6E100C" />
<rect x="28" y="33" width="1" height="1" fill="#FA6A0A" />
<rect x="31" y="33" width="1" height="1" fill="#6E100C" />
<rect x="34" y="33" width="1" height="1" fill="#F9A31B" />
<rect x="35" y="33" width="1" height="7" fill="#8E5252" />
<rect x="40" y="33" width="1" height="12" fill="#8E5252" />
<rect x="41" y="33" width="1" height="1" fill="#F9A31B" />
<rect x="42" y="33" width="1" height="1" fill="#060608" />
<rect x="6" y="34" width="1" height="1" fill="#6E100C" />
<rect x="7" y="34" width="1" height="1" fill="#8A150F" />
<rect x="8" y="34" width="1" height="1" fill="#6E100C" />
<rect x="10" y="34" width="1" height="4" fill="#DF3E23" />
<rect x="11" y="34" width="1" height="2" fill="#F9A31B" />
<rect x="14" y="34" width="2" height="1" fill="#6E100C" />
<rect x="17" y="34" width="1" height="1" fill="#FA6A0A" />
<rect x="20" y="34" width="2" height="2" fill="#F9A31B" />
<rect x="22" y="34" width="2" height="1" fill="#6E100C" />
<rect x="24" y="34" width="1" height="1" fill="#F9A31B" />
<rect x="25" y="34" width="1" height="1" fill="#6E100C" />
<rect x="26" y="34" width="1" height="1" fill="#F9A31B" />
<rect x="27" y="34" width="2" height="2" fill="#FFD541" />
<rect x="31" y="34" width="1" height="1" fill="#FFD541" />
<rect x="33" y="34" width="1" height="1" fill="#F9A31B" />
<rect x="34" y="34" width="1" height="1" fill="#FA6A0A" />
<rect x="41" y="34" width="1" height="1" fill="#060608" />
<rect x="5" y="35" width="1" height="3" fill="#060608" />
<rect x="6" y="35" width="1" height="3" fill="#8A150F" />
<rect x="7" y="35" width="1" height="1" fill="#6E100C" />
<rect x="8" y="35" width="1" height="1" fill="#8A150F" />
<rect x="14" y="35" width="1" height="1" fill="#6E100C" />
<rect x="15" y="35" width="2" height="3" fill="#FA6A0A" />
<rect x="17" y="35" width="1" height="2" fill="#6E100C" />
<rect x="18" y="35" width="2" height="4" fill="#F9A31B" />
<rect x="22" y="35" width="2" height="1" fill="#F9A31B" />
<rect x="24" y="35" width="1" height="1" fill="#6E100C" />
<rect x="25" y="35" width="1" height="1" fill="#F9A31B" />
<rect x="26" y="35" width="1" height="7" fill="#FFD541" />
<rect x="31" y="35" width="1" height="1" fill="#6E100C" />
<rect x="32" y="35" width="1" height="1" fill="#F9A31B" />
<rect x="33" y="35" width="2" height="3" fill="#8E5252" />
<rect x="41" y="35" width="1" height="10" fill="#8E5252" />
<rect x="42" y="35" width="1" height="1" fill="#060608" />
<rect x="7" y="36" width="1" height="1" fill="#8A150F" />
<rect x="8" y="36" width="1" height="1" fill="#6E100C" />
<rect x="11" y="36" width="1" height="4" fill="#FA6A0A" />
<rect x="14" y="36" width="1" height="3" fill="#FA6A0A" />
<rect x="20" y="36" width="1" height="4" fill="#F9A31B" />
<rect x="21" y="36" width="2" height="1" fill="#6E100C" />
<rect x="23" y="36" width="2" height="2" fill="#F9A31B" />
<rect x="25" y="36" width="1" height="2" fill="#FFD541" />
<rect x="27" y="36" width="1" height="1" fill="#F9A31B" />
<rect x="28" y="36" width="1" height="6" fill="#FFD541" />
<rect x="31" y="36" width="1" height="7" fill="#F9A31B" />
<rect x="32" y="36" width="1" height="1" fill="#8E5252" />
<rect x="42" y="36" width="1" height="9" fill="#8E5252" />
<rect x="43" y="36" width="1" height="3" fill="#060608" />
<rect x="7" y="37" width="1" height="1" fill="#6E100C" />
<rect x="8" y="37" width="1" height="1" fill="#8A150F" />
<rect x="13" y="37" width="1" height="2" fill="#6E100C" />
<rect x="17" y="37" width="1" height="1" fill="#FA6A0A" />
<rect x="21" y="37" width="1" height="1" fill="#6E100C" />
<rect x="22" y="37" width="1" height="7" fill="#F9A31B" />
<rect x="27" y="37" width="1" height="2" fill="#6E100C" />
<rect x="29" y="37" width="1" height="1" fill="#FA6A0A" />
<rect x="32" y="37" width="1" height="5" fill="#F9A31B" />
<rect x="6" y="38" width="1" height="1" fill="#060608" />
<rect x="7" y="38" width="1" height="1" fill="#8A150F" />
<rect x="8" y="38" width="2" height="1" fill="#6E100C" />
<rect x="10" y="38" width="1" height="3" fill="#FA6A0A" />
<rect x="15" y="38" width="1" height="1" fill="#F9A31B" />
<rect x="16" y="38" width="1" height="1" fill="#6E100C" />
<rect x="17" y="38" width="1" height="5" fill="#F9A31B" />
<rect x="21" y="38" width="1" height="2" fill="#F9A31B" />
<rect x="23" y="38" width="2" height="1" fill="#6E100C" />
<rect x="25" y="38" width="1" height="1" fill="#FA6A0A" />
<rect x="29" y="38" width="1" height="2" fill="#FFD541" />
<rect x="33" y="38" width="1" height="4" fill="#F9A31B" />
<rect x="34" y="38" width="1" height="1" fill="#8E5252" />
<rect x="7" y="39" width="2" height="1" fill="#060608" />
<rect x="9" y="39" width="1" height="1" fill="#8A150F" />
<rect x="13" y="39" width="1" height="3" fill="#FA6A0A" />
<rect x="14" y="39" width="1" height="1" fill="#6E100C" />
<rect x="15" y="39" width="2" height="1" fill="#FA6A0A" />
<rect x="18" y="39" width="1" height="2" fill="#F9A31B" />
<rect x="19" y="39" width="1" height="1" fill="#6E100C" />
<rect x="23" y="39" width="3" height="1" fill="#FFD541" />
<rect x="27" y="39" width="1" height="1" fill="#FFD541" />
<rect x="30" y="39" width="1" height="4" fill="#F9A31B" />
<rect x="34" y="39" width="1" height="2" fill="#F9A31B" />
<rect x="43" y="39" width="1" height="5" fill="#8E5252" />
<rect x="44" y="39" width="1" height="1" fill="#060608" />
<rect x="9" y="40" width="1" height="1" fill="#060608" />
<rect x="11" y="40" width="1" height="1" fill="#F9A31B" />
<rect x="14" y="40" width="1" height="2" fill="#FA6A0A" />
<rect x="15" y="40" width="1" height="1" fill="#6E100C" />
<rect x="16" y="40" width="1" height="3" fill="#FA6A0A" />
<rect x="19" y="40" width="1" height="2" fill="#F9A31B" />
<rect x="20" y="40" width="1" height="1" fill="#6E100C" />
<rect x="21" y="40" width="1" height="1" fill="#FFD541" />
<rect x="23" y="40" width="1" height="1" fill="#F9A31B" />
<rect x="24" y="40" width="1" height="2" fill="#FA6A0A" />
<rect x="25" y="40" width="1" height="4" fill="#FFD541" />
<rect x="27" y="40" width="1" height="1" fill="#FA6A0A" />
<rect x="29" y="40" width="1" height="3" fill="#F9A31B" />
<rect x="35" y="40" width="1" height="1" fill="#060608" />
<rect x="44" y="40" width="1" height="3" fill="#8E5252" />
<rect x="45" y="40" width="1" height="3" fill="#060608" />
<rect x="10" y="41" width="1" height="1" fill="#060608" />
<rect x="11" y="41" width="1" height="1" fill="#FA6A0A" />
<rect x="15" y="41" width="1" height="2" fill="#FA6A0A" />
<rect x="18" y="41" width="1" height="1" fill="#FFD541" />
<rect x="20" y="41" width="1" height="1" fill="#FFD541" />
<rect x="21" y="41" width="1" height="2" fill="#F9A31B" />
<rect x="23" y="41" width="1" height="2" fill="#FFD541" />
<rect x="27" y="41" width="1" height="2" fill="#FFD541" />
<rect x="34" y="41" width="1" height="1" fill="#060608" />
<rect x="36" y="41" width="1" height="1" fill="#060608" />
<rect x="11" y="42" width="4" height="1" fill="#060608" />
<rect x="18" y="42" width="1" height="2" fill="#F9A31B" />
<rect x="19" y="42" width="1" height="1" fill="#6E100C" />
<rect x="20" y="42" width="1" height="1" fill="#F9A31B" />
<rect x="24" y="42" width="1" height="2" fill="#FFD541" />
<rect x="26" y="42" width="1" height="1" fill="#FA6A0A" />
<rect x="28" y="42" width="1" height="1" fill="#060608" />
<rect x="32" y="42" width="2" height="1" fill="#060608" />
<rect x="37" y="42" width="1" height="1" fill="#060608" />
<rect x="38" y="42" width="2" height="1" fill="#8E5252" />
<rect x="15" y="43" width="3" height="1" fill="#060608" />
<rect x="19" y="43" width="1" height="1" fill="#F9A31B" />
<rect x="20" y="43" width="1" height="1" fill="#060608" />
<rect x="21" y="43" width="1" height="1" fill="#FA6A0A" />
<rect x="23" y="43" width="1" height="1" fill="#F9A31B" />
<rect x="26" y="43" width="1" height="1" fill="#FFD541" />
<rect x="27" y="43" width="1" height="1" fill="#060608" />
<rect x="29" y="43" width="3" height="1" fill="#060608" />
<rect x="38" y="43" width="1" height="1" fill="#060608" />
<rect x="39" y="43" width="1" height="1" fill="#8E5252" />
<rect x="44" y="43" width="1" height="1" fill="#060608" />
<rect x="18" y="44" width="2" height="1" fill="#060608" />
<rect x="21" y="44" width="6" height="1" fill="#060608" />
<rect x="39" y="44" width="1" height="1" fill="#060608" />
<rect x="43" y="44" width="1" height="1" fill="#060608" />
<rect x="40" y="45" width="3" height="1" fill="#060608" />
</svg>